<svg version="1.1" id="Layer_1" xmlns="http://www.w3.org/2000/svg" xmlns:xlink="http://www.w3.org/1999/xlink" x="0px" y="0px"
	 width="100%" viewBox="0 0 326 328" enable-background="new 0 0 326 328" xml:space="preserve">
<path fill="#FFFFFF" opacity="1.000000" stroke="none" 
	d="
M326.840179,1.826577 
	C327.000000,109.452232 326.982605,216.904480 327.077850,324.356628 
	C327.080963,327.843628 326.715393,329.120117 322.647156,329.114532 
	C216.861053,328.969818 111.074669,328.979828 5.288476,329.088593 
	C1.793116,329.092194 0.889413,328.507996 0.893960,324.792053 
	C1.025238,217.506714 1.000000,110.221199 1.000000,2.467854 
	C1.208453,1.764314 1.426169,1.537520 1.826574,1.159810 
	C109.688103,1.000000 217.376205,1.000000 325.532166,1.000000 
	C326.235687,1.208429 326.462494,1.426147 326.840179,1.826577 
z"/>
<path fill="#E6E7EC" opacity="1.000000" stroke="none" 
	d="
M1.500000,1.000000 
	C1.917359,1.335268 1.733121,1.599757 1.223642,1.896733 
	C1.000000,1.666667 1.000000,1.333333 1.500000,1.000000 
z"/>
<path fill="#E6E7EC" opacity="1.000000" stroke="none" 
	d="
M327.000000,1.500000 
	C326.670197,1.908523 326.403412,1.725319 326.099792,1.225194 
	C326.333344,1.000000 326.666656,1.000000 327.000000,1.500000 
z"/>
<path fill="#170A0F" opacity="1.000000" stroke="none" 
	d="
M151.668335,164.456070 
	C151.667679,168.567520 151.845169,172.234390 151.617935,175.876022 
	C151.304306,180.901978 147.906189,184.081970 143.315536,184.022644 
	C138.279160,183.957581 135.198212,180.823349 135.035873,175.421722 
	C134.931107,171.935394 135.004593,168.443314 135.021225,164.953934 
	C135.027969,163.541946 134.530487,161.989182 137.009857,161.910568 
	C139.740524,161.824005 139.345596,163.514374 139.345276,165.147339 
	C139.344574,168.636795 139.349655,172.126266 139.350571,175.615723 
	C139.351288,178.314987 140.514191,180.242966 143.327637,180.379105 
	C146.375534,180.526596 147.231354,178.329453 147.276169,175.751114 
	C147.342560,171.930435 147.302887,168.107971 147.324402,164.286377 
	C147.329941,163.303818 147.233337,162.138611 148.606888,162.022980 
	C150.057358,161.900864 151.782181,161.595749 151.668335,164.456070 
z"/>
<path fill="#170A0F" opacity="1.000000" stroke="none" 
	d="
M165.311768,183.998978 
	C162.838776,184.025986 161.929489,183.182495 161.977097,180.989395 
	C162.096191,175.502167 162.017944,170.010620 162.017624,164.520813 
	C162.017563,163.327103 162.065002,162.452499 163.669464,162.028122 
	C169.955902,160.365372 177.376526,164.307068 178.733063,170.235352 
	C180.358505,177.338852 176.278870,182.953552 168.729309,183.949997 
	C167.746384,184.079712 166.736588,184.005783 165.311768,183.998978 
z"/>
<path fill="#170A0F" opacity="1.000000" stroke="none" 
	d="
M122.493637,163.218002 
	C125.792931,165.637390 126.894417,169.133362 124.758324,171.646042 
	C121.885666,175.025131 123.075302,177.411392 124.768692,180.303787 
	C125.347778,181.292892 125.725410,182.399948 126.207092,183.480011 
	C122.448769,185.376694 121.369606,182.850479 120.101654,180.158081 
	C119.352814,178.567963 119.428123,175.576218 116.622459,176.215332 
	C114.165642,176.774994 115.757225,179.256348 115.362991,180.834595 
	C115.048851,182.092209 116.094795,183.953476 113.535400,184.054611 
	C110.734474,184.165314 111.345337,182.213821 111.330963,180.679504 
	C111.289093,176.206512 111.700706,171.690277 111.211510,167.271027 
	C110.684853,162.513382 112.812706,161.421555 116.823822,161.988129 
	C118.610107,162.240417 120.369568,162.682648 122.493637,163.218002 
z"/>
<path fill="#170A0F" opacity="1.000000" stroke="none" 
	d="
M195.943604,161.980331 
	C198.900330,162.628235 202.471725,162.309937 200.926132,166.889572 
	C199.194412,166.440292 197.523636,165.823853 195.803604,165.616943 
	C194.358047,165.443054 192.583420,165.514954 192.142593,167.348251 
	C191.678696,169.277435 193.211914,169.918182 194.731186,170.298004 
	C196.011353,170.618057 197.355667,170.709244 198.609680,171.100266 
	C201.130051,171.886200 203.046448,173.284363 203.289719,176.228027 
	C203.534256,179.186874 202.401321,181.416336 199.841492,182.852692 
	C194.486557,185.857391 188.201828,183.464401 188.117676,177.965515 
	C190.556320,179.541412 192.933853,180.949982 195.762421,180.396576 
	C197.364899,180.083038 199.286041,179.843506 199.206757,177.585190 
	C199.141479,175.725571 197.652618,175.237259 196.066711,175.064590 
	C195.737335,175.028717 195.399689,175.051697 195.074585,174.996338 
	C191.444000,174.378265 188.074188,173.268967 188.058792,168.780014 
	C188.042175,163.940002 191.253281,162.277771 195.943604,161.980331 
z"/>
<path fill="#170A0F" opacity="1.000000" stroke="none" 
	d="
M217.341690,178.904327 
	C217.339996,180.219101 217.302414,181.047104 217.344742,181.871002 
	C217.414078,183.220169 217.050262,184.034103 215.463104,184.050629 
	C213.771103,184.068253 213.141083,183.405899 213.159073,181.714325 
	C213.220596,175.931870 213.218262,170.147980 213.159180,164.365463 
	C213.142563,162.737289 213.619141,161.959900 215.383316,161.943619 
	C217.380127,161.925217 217.355484,163.137772 217.348816,164.536270 
	C217.326859,169.162659 217.341263,173.789215 217.341690,178.904327 
z"/>
<path fill="#E6E7EC" opacity="1.000000" stroke="none" 
	d="
M167.799255,165.459564 
	C172.870544,165.907272 174.830521,168.832886 174.793793,173.165665 
	C174.765686,176.480499 173.701904,179.337357 169.902252,180.253708 
	C167.599136,180.809143 165.720596,180.768723 166.169632,177.707657 
	C166.766464,173.638992 164.552505,169.290283 167.799255,165.459564 
z"/>
<path fill="#E6E7EC" opacity="1.000000" stroke="none" 
	d="
M115.276535,170.566589 
	C115.730362,168.519104 113.976021,165.813004 117.209145,165.483551 
	C118.800926,165.321350 120.593483,165.622375 121.388863,167.471191 
	C122.043373,168.992538 121.895630,170.718964 120.528824,171.480560 
	C118.888008,172.394821 116.688637,174.244568 115.276535,170.566589 
z"/>
</svg>